<svg width="31" height="31" viewBox="0 0 31 31" fill="none" xmlns="http://www.w3.org/2000/svg">
<path d="M9.04167 23.25C7.62084 23.25 6.47126 24.4125 6.47126 25.8333C6.47126 27.2542 7.62084 28.4167 9.04167 28.4167C10.4625 28.4167 11.625 27.2542 11.625 25.8333C11.625 24.4125 10.4625 23.25 9.04167 23.25ZM1.29167 2.58334V5.16668H3.87501L8.52501 14.9704L6.78126 18.135C6.57459 18.4967 6.45834 18.9229 6.45834 19.375C6.45834 20.7958 7.62084 21.9583 9.04167 21.9583H24.5417V19.375H9.58417C9.40334 19.375 9.26126 19.2329 9.26126 19.0521L9.3 18.8971L10.4625 16.7917H20.0854C21.0542 16.7917 21.9067 16.2621 22.3458 15.4613L26.97 7.07834C27.0733 6.89751 27.125 6.67793 27.125 6.45834C27.125 5.74793 26.5438 5.16668 25.8333 5.16668H6.72959L5.51542 2.58334H1.29167ZM21.9583 23.25C20.5375 23.25 19.3879 24.4125 19.3879 25.8333C19.3879 27.2542 20.5375 28.4167 21.9583 28.4167C23.3792 28.4167 24.5417 27.2542 24.5417 25.8333C24.5417 24.4125 23.3792 23.25 21.9583 23.25Z" fill="black"/>
</svg>
