<svg width="145" height="114" fill="none" xmlns="http://www.w3.org/2000/svg"><g filter="url(#a)"><ellipse cx="72.447" cy="43.46" rx="68.447" ry="34.98" fill="#FAD9A7"/><ellipse cx="60.104" cy="53" rx="56.104" ry="53" fill="#FAD9A7"/><path d="M13.873 63.483c-2.851 0-4.96-.752-6.328-2.256-1.367-1.504-2.05-3.842-2.05-7.016 0-6.182 2.807-9.273 8.422-9.273.82 0 1.616.088 2.388.264.771.166 1.396.376 1.875.63.478.254.718.498.718.732 0 .147-.054.342-.162.586a2.886 2.886 0 0 1-.351.645c-.137.185-.259.278-.366.278-.05 0-.186-.063-.41-.19a10.089 10.089 0 0 0-1.597-.689c-.557-.186-1.236-.278-2.036-.278-2.1 0-3.648.586-4.644 1.758-.986 1.162-1.48 3.017-1.48 5.566 0 2.49.489 4.326 1.465 5.508.987 1.172 2.505 1.758 4.556 1.758.86 0 1.597-.103 2.212-.308a11.399 11.399 0 0 0 1.772-.762c.274-.146.44-.22.498-.22.108 0 .23.093.367.279.146.185.273.395.38.63.108.224.162.386.162.483 0 .244-.25.518-.747.82-.489.293-1.148.542-1.978.748-.82.205-1.709.307-2.666.307Zm9.668-.102c-.371 0-.64-.044-.806-.132a.477.477 0 0 1-.249-.44v-9.14c0-1.133-.053-1.949-.16-2.447-.108-.507-.162-.786-.162-.835 0-.214.161-.366.483-.454a3.33 3.33 0 0 1 .938-.146c.234 0 .41.127.527.38.118.245.22.591.308 1.04l.073.308c.928-1.298 1.934-1.948 3.018-1.948.498 0 .874.093 1.128.278.254.176.38.416.38.718 0 .293-.053.606-.16.938-.098.322-.215.483-.352.483-.069 0-.19-.03-.366-.088a2.166 2.166 0 0 0-.47-.146 2.545 2.545 0 0 0-.6-.059c-.4 0-.781.117-1.142.352-.352.234-.65.493-.894.776-.244.283-.366.44-.366.469v9.521a.478.478 0 0 1-.25.44c-.165.088-.424.132-.775.132h-.103Zm13.594.102c-1.963 0-3.462-.586-4.497-1.758-1.026-1.181-1.538-2.895-1.538-5.141s.522-3.975 1.567-5.186c1.045-1.22 2.534-1.83 4.468-1.83 1.914 0 3.379.605 4.394 1.816 1.016 1.2 1.524 2.934 1.524 5.2 0 2.256-.503 3.97-1.51 5.141-.995 1.172-2.465 1.758-4.408 1.758Zm-.073-1.875c1.27 0 2.207-.41 2.812-1.23.605-.83.908-2.11.908-3.838 0-1.739-.302-3.023-.908-3.853-.605-.83-1.543-1.245-2.813-1.245-1.26 0-2.187.415-2.783 1.245-.595.82-.893 2.105-.893 3.853 0 1.738.293 3.017.879 3.838.595.82 1.528 1.23 2.797 1.23Zm10.869 1.773c-.694 0-1.04-.19-1.04-.572V44.323c0-.38.346-.571 1.04-.571h.102c.703 0 1.055.19 1.055.571v7.031a6.39 6.39 0 0 1 1.787-1.274 4.815 4.815 0 0 1 2.183-.513c1.093 0 2.055.308 2.885.923.84.615 1.26 1.709 1.26 3.281v9.038c0 .381-.347.572-1.04.572h-.102c-.704 0-1.055-.19-1.055-.572v-8.818c0-.791-.225-1.411-.674-1.86-.45-.45-1.108-.674-1.977-.674-.577 0-1.109.136-1.597.41a5.655 5.655 0 0 0-1.201.894c-.313.312-.47.488-.47.527v9.521c0 .381-.35.572-1.054.572h-.102Zm19.116.102c-2.158 0-3.765-.561-4.82-1.684-1.044-1.133-1.567-2.862-1.567-5.186 0-2.305.513-4.053 1.538-5.244 1.026-1.201 2.534-1.802 4.527-1.802 1.777 0 3.115.576 4.013 1.729.909 1.152 1.363 2.841 1.363 5.068 0 .098-.054.234-.162.41a2.02 2.02 0 0 1-.366.454c-.136.127-.254.19-.351.19h-8.218c.107 1.456.478 2.52 1.113 3.194.645.664 1.611.996 2.9.996.723 0 1.343-.088 1.86-.264.528-.175 1.036-.39 1.524-.644.05-.02.122-.054.22-.103a.572.572 0 0 1 .205-.073c.108 0 .23.088.366.264.147.166.269.356.367.571.107.205.16.356.16.454 0 .215-.214.454-.644.718-.43.264-1.006.488-1.728.674a9.103 9.103 0 0 1-2.3.278Zm2.725-7.94c0-2.734-1.04-4.1-3.12-4.1-2.237 0-3.453 1.366-3.648 4.1h6.768Zm9.667 7.94c-.869 0-1.645-.264-2.329-.79-.683-.528-1.025-1.46-1.025-2.799V51.59h-1.304c-.185 0-.322-.059-.41-.176-.078-.127-.117-.327-.117-.6v-.323c0-.273.039-.469.117-.586.088-.127.225-.19.41-.19h1.304l.308-2.725c.02-.38.297-.571.835-.571h.249c.273 0 .473.049.6.146.127.088.19.23.19.425v2.725h2.183c.186 0 .318.063.396.19.088.117.132.313.132.586v.322c0 .274-.044.474-.132.6-.078.118-.21.177-.396.177h-2.182v8.1c0 .713.122 1.211.366 1.494.254.284.596.425 1.025.425.332 0 .586-.02.762-.058.185-.04.307-.06.366-.06.156 0 .283.157.381.47.107.312.161.561.161.747 0 .517-.63.776-1.89.776Zm12.452-.102c-.372 0-.64-.044-.806-.132a.477.477 0 0 1-.25-.44V45.627c0-.39.353-.586 1.056-.586h.922c.577 0 .943.16 1.1.483l4.921 8.54.674 1.64.674-1.493 4.936-8.687c.166-.322.528-.483 1.084-.483h.864c.694 0 1.04.195 1.04.586v17.182c0 .381-.346.572-1.04.572h-.175c-.371 0-.64-.044-.806-.132a.478.478 0 0 1-.249-.44V48.791l-.044.117-5.186 9.009a.776.776 0 0 1-.234.263.689.689 0 0 1-.337.074h-1.04a.628.628 0 0 1-.586-.337l-5.303-9.273V62.81c0 .381-.346.572-1.04.572h-.175Zm20.185 0c-.4 0-.688-.035-.864-.103-.166-.068-.249-.18-.249-.337 0-.117.068-.273.205-.469l4.219-6.108-3.911-5.8c-.127-.196-.191-.347-.191-.455 0-.156.088-.269.264-.337.176-.068.478-.102.908-.102h.249c.293 0 .527.029.703.087a.744.744 0 0 1 .425.308l2.476 3.706c.146.235.322.542.527.923a19.78 19.78 0 0 1 .557-.923l2.49-3.75c.156-.234.547-.351 1.172-.351h.102c.401 0 .684.034.85.102.166.069.249.18.249.337 0 .117-.069.269-.205.454l-3.926 5.728 4.204 6.181c.147.215.22.371.22.47 0 .146-.093.258-.279.336-.185.068-.493.103-.922.103h-.235c-.302 0-.542-.025-.718-.074a.752.752 0 0 1-.395-.322l-2.769-4.13a9.677 9.677 0 0 1-.366-.587 7.93 7.93 0 0 0-.176-.322c-.019.04-.078.142-.175.308a8.824 8.824 0 0 1-.381.6l-2.798 4.16c-.166.244-.557.367-1.172.367h-.088Z" fill="#000"/><path d="m16.305 45.202-.223.975.012.002.21-.977Zm2.431 1.948-.915-.403-.007.016-.006.016.928.371Zm-1.128.733.492-.871-.009-.005-.009-.005-.474.88Zm-1.596-.689.316-.949-.316.95Zm-6.68 1.48-.762-.648.762.648Zm-.015 11.074-.77.637.005.007.765-.644Zm8.54.688.472.882-.472-.882Zm.865.059-.805.593.01.013.01.014.785-.62Zm.38.63-.909.416.004.008.003.007.902-.431Zm-.585 1.303.514.858.005-.003-.52-.855Zm-1.978.748-.24-.971h-.002l.242.97Zm-2.666-.693c-2.687 0-4.477-.706-5.588-1.928L6.805 61.9c1.623 1.785 4.052 2.583 7.068 2.583v-2Zm-5.588-1.928c-1.128-1.24-1.79-3.285-1.79-6.344h-2c0 3.288.703 5.921 2.31 7.689l1.48-1.345Zm-1.79-6.344c0-2.96.673-4.992 1.845-6.282 1.155-1.272 2.95-1.99 5.577-1.99v-2c-2.988 0-5.405.826-7.057 2.645-1.636 1.8-2.366 4.404-2.366 7.627h2Zm7.422-8.273c.748 0 1.47.08 2.165.239l.445-1.95a11.713 11.713 0 0 0-2.61-.289v2Zm2.177.241c.719.155 1.248.34 1.617.536l.937-1.767c-.587-.311-1.308-.546-2.133-.724l-.42 1.956Zm1.617.536c.093.05.162.092.213.127a.6.6 0 0 1 .08.063c.006.006-.018-.016-.046-.071a.607.607 0 0 1-.06-.27h2c0-.478-.247-.835-.466-1.059a3.18 3.18 0 0 0-.784-.557l-.937 1.767Zm.187-.15c0-.044.006-.051-.005-.01-.01.039-.032.102-.072.192l1.83.806c.125-.284.247-.633.247-.989h-2Zm-.09.214c-.07.176-.148.314-.228.422l1.61 1.187c.193-.263.35-.554.475-.866l-1.857-.743Zm-.228.422c-.037.05-.037.039.006.006a.721.721 0 0 1 .433-.134v2c.348 0 .614-.15.777-.273.165-.126.294-.277.394-.412L17.58 47.2Zm.439-.128a.924.924 0 0 1 .27.042c.013.004.02.007.02.008l-.009-.005a4.833 4.833 0 0 1-.2-.106l-.984 1.741c.122.069.239.131.342.18.051.023.115.05.184.074.044.015.192.066.377.066v-2Zm.064-.07a11.089 11.089 0 0 0-1.755-.758l-.633 1.898c.504.167.983.374 1.44.62l.947-1.76Zm-1.755-.758c-.688-.229-1.48-.33-2.352-.33v2c.73 0 1.294.086 1.72.228l.632-1.898Zm-2.352-.33c-2.28 0-4.157.642-5.406 2.11l1.524 1.296c.744-.875 1.963-1.405 3.882-1.405v-2ZM8.57 48.027c-1.214 1.43-1.717 3.575-1.717 6.214h2c0-2.459.482-4.025 1.241-4.92L8.57 48.027ZM6.853 54.24c0 2.587.501 4.702 1.694 6.145l1.541-1.274c-.76-.92-1.235-2.478-1.235-4.871h-2Zm1.7 6.152c1.235 1.468 3.08 2.114 5.32 2.114v-2c-1.862 0-3.053-.526-3.79-1.402l-1.53 1.288Zm5.32 2.114c.934 0 1.784-.111 2.528-.36l-.632-1.897c-.486.162-1.111.257-1.896.257v2Zm2.528-.36a12.405 12.405 0 0 0 1.928-.828l-.943-1.764c-.516.276-1.055.508-1.617.695l.632 1.898Zm1.929-.828a7.136 7.136 0 0 1 .26-.132.53.53 0 0 1 .021-.008l-.01.003a.63.63 0 0 1-.132.028.912.912 0 0 1-.114.008v-2c-.18 0-.326.047-.374.063-.072.023-.14.051-.198.076-.117.052-.252.12-.398.199l.945 1.763Zm.026-.101a.721.721 0 0 1-.434-.135c-.042-.032-.043-.044-.005.006l1.61-1.186c-.1-.136-.23-.287-.394-.412a1.285 1.285 0 0 0-.777-.273v2Zm-.42-.102c.094.117.18.258.258.426l1.818-.833c-.138-.3-.305-.58-.505-.833l-1.57 1.24Zm.264.441a2.467 2.467 0 0 1 .075.174c.004.013.003.011 0-.004a.66.66 0 0 1-.01-.118h1.999a1.63 1.63 0 0 0-.092-.51 3.572 3.572 0 0 0-.167-.405l-1.805.863Zm.064.052a.57.57 0 0 1 .052-.245c.02-.043.036-.056.022-.04a.847.847 0 0 1-.105.092 2.563 2.563 0 0 1-.236.159l1.039 1.709c.29-.176.566-.378.78-.613.209-.23.448-.59.448-1.062h-2Zm-.262-.037c-.371.223-.926.442-1.703.634l.48 1.941c.883-.218 1.647-.497 2.252-.86l-1.029-1.715Zm-1.705.634a9.978 9.978 0 0 1-2.424.278v2c1.028 0 2-.11 2.909-.337l-.485-1.94Zm6.438 1.044-.507.862.02.011.02.01.467-.883Zm-.41-12.027-.978.207v.004l.978-.21Zm.323-1.289.263.965.01-.003.009-.002-.282-.96Zm1.464.235-.908.419.003.007.004.006.901-.432Zm.308 1.04-.982.192.004.02.005.02.973-.232Zm.073.307-.973.232.51 2.138 1.277-1.788-.814-.582Zm4.146-1.67-.59.808.01.007.01.008.57-.823Zm.22 1.656-.952-.308-.003.009-.003.009.957.29Zm-.718.395-.401.916.041.019.043.014.317-.949Zm-.47-.146-.242.97.03.007.029.006.184-.983Zm-1.742.293-.544-.84-.011.008.555.832Zm-1.51 11.206.469.883.02-.01.019-.011-.507-.862Zm-.878-.868c-.15 0-.253-.01-.318-.02-.071-.012-.065-.02-.02.004l-.936 1.767c.393.208.87.249 1.274.249v-2Zm-.299.006c.046.027.12.085.177.186.056.1.067.19.067.236h-2c0 .544.266 1.021.742 1.302l1.014-1.724Zm.244.422v-9.14h-2v9.14h2Zm0-9.14c0-1.14-.052-2.047-.183-2.657l-1.955.421c.083.386.138 1.11.138 2.236h2Zm-.183-2.654a35.694 35.694 0 0 1-.142-.71l-.002-.014.002.022c0 .01.003.037.003.074h-2c0 .11.02.222.023.242l.035.193c.029.148.07.351.125.607l1.956-.414Zm-.139-.628a.635.635 0 0 1-.194.455c-.084.079-.137.077-.06.056l-.526-1.93a1.838 1.838 0 0 0-.784.416 1.363 1.363 0 0 0-.436 1.003h2Zm-.234.506c.256-.076.473-.106.655-.106v-2c-.404 0-.812.067-1.22.187l.565 1.919Zm.655-.106a.49.49 0 0 1-.278-.094c-.086-.063-.11-.121-.103-.106l1.816-.838a1.703 1.703 0 0 0-.542-.678 1.51 1.51 0 0 0-.893-.284v2Zm-.374-.187c.064.133.146.385.228.8l1.962-.384c-.094-.484-.217-.926-.387-1.281l-1.803.865Zm.236.84.073.307 1.946-.463-.073-.308-1.946.463Zm1.86.657c.833-1.167 1.576-1.53 2.204-1.53v-2c-1.54 0-2.81.936-3.832 2.367l1.628 1.163Zm2.204-1.53c.4 0 .529.08.538.086l1.18-1.615c-.5-.365-1.123-.47-1.718-.47v2Zm.559.1c.008.006.006.006-.002-.002a.207.207 0 0 1-.046-.09c-.003-.012-.003-.017-.003-.012h2c0-.639-.294-1.182-.811-1.54l-1.138 1.645Zm-.05-.104c0 .17-.032.379-.113.63l1.903.616c.134-.413.21-.83.21-1.246h-2Zm-.119.648c-.035.117-.05.115-.012.064a.77.77 0 0 1 .618-.29v2c.516 0 .843-.319.999-.534.154-.212.247-.455.31-.66l-1.915-.58Zm.606-.227a.7.7 0 0 1 .09.006c.01.002.012.002 0 0a2.458 2.458 0 0 1-.14-.042l-.633 1.897c.16.053.43.14.683.14v-2Zm.034-.004a3.155 3.155 0 0 0-.685-.213l-.368 1.966c.076.014.16.04.252.08l.801-1.833Zm-.627-.2a3.515 3.515 0 0 0-.843-.089v2c.2 0 .31.017.358.029l.485-1.94Zm-.843-.089c-.608 0-1.176.182-1.687.513l1.089 1.678c.212-.138.406-.19.598-.19v-2Zm-1.697.52a5.371 5.371 0 0 0-1.096.955l1.515 1.306c.178-.206.405-.407.69-.597l-1.109-1.664Zm-1.096.955c-.125.145-.23.27-.305.367a2.482 2.482 0 0 0-.117.16 1.287 1.287 0 0 0-.076.13c-.004.01-.111.203-.111.465h2a.979.979 0 0 1-.1.43c-.021.043-.04.07-.042.074l.021-.028c.047-.059.126-.154.245-.292l-1.515-1.306Zm-.61 1.122v9.521h2v-9.521h-2Zm0 9.521c0-.047.012-.137.069-.236.057-.1.13-.159.176-.186l1.014 1.724c.477-.28.742-.758.742-1.302h-2Zm.284-.444c.04-.021.045-.014-.018-.003a1.79 1.79 0 0 1-.29.019v2c.395 0 .856-.043 1.244-.249l-.936-1.767Zm-.308.016h-.103v2h.103v-2Zm8.994-.656-.756.656.006.006.75-.662Zm.029-10.327.757.653.003-.003-.76-.65Zm8.862-.015-.766.643.003.003.763-.646Zm.015 10.342-.759-.651-.003.004.762.647Zm-1.67-1.347.805.593.003-.004-.808-.59Zm-5.596-7.69.81.587.003-.005-.813-.583Zm-.014 7.69-.814.58.005.007.809-.587Zm2.87 2.105c-1.754 0-2.948-.515-3.747-1.42l-1.499 1.324c1.272 1.44 3.076 2.096 5.247 2.096v-2Zm-3.741-1.413c-.811-.935-1.293-2.378-1.293-4.486h-2c0 2.383.543 4.368 1.782 5.797l1.511-1.311ZM32.1 56.584c0-2.103.489-3.565 1.324-4.533l-1.514-1.306c-1.255 1.454-1.81 3.449-1.81 5.839h2Zm1.327-4.536c.816-.953 2.001-1.48 3.708-1.48v-2c-2.16 0-3.954.692-5.228 2.18l1.52 1.3Zm3.708-1.48c1.687 0 2.843.522 3.628 1.458l1.532-1.285c-1.245-1.485-3.02-2.174-5.16-2.174v2Zm3.63 1.461c.809.956 1.288 2.423 1.288 4.555h2c0-2.4-.537-4.4-1.76-5.846l-1.527 1.291Zm1.288 4.555c0 2.124-.476 3.567-1.268 4.49l1.518 1.303c1.22-1.421 1.75-3.406 1.75-5.793h-2Zm-1.271 4.494c-.758.891-1.914 1.405-3.647 1.405v2c2.153 0 3.937-.658 5.17-2.11l-1.523-1.295Zm-3.72 1.53c1.5 0 2.777-.498 3.617-1.636l-1.61-1.188c-.37.502-.969.824-2.008.824v2Zm3.62-1.641c.79-1.083 1.1-2.617 1.1-4.427h-2c0 1.647-.295 2.671-.716 3.248l1.616 1.179Zm1.1-4.427c0-1.818-.31-3.358-1.1-4.442l-1.616 1.178c.42.577.716 1.605.716 3.264h2Zm-1.1-4.442c-.839-1.15-2.116-1.656-3.62-1.656v2c1.034 0 1.632.324 2.004.834l1.616-1.178Zm-3.62-1.656c-1.498 0-2.768.509-3.596 1.662l1.625 1.166c.363-.506.949-.828 1.97-.828v-2ZM33.469 52.1c-.781 1.075-1.084 2.617-1.084 4.44h2c0-1.674.292-2.7.703-3.265L33.468 52.1Zm-1.084 4.44c0 1.812.298 3.345 1.065 4.419l1.627-1.163c-.404-.566-.692-1.592-.692-3.256h-2Zm1.07 4.425c.83 1.145 2.107 1.643 3.607 1.643v-2c-1.04 0-1.629-.322-1.99-.818l-1.617 1.175Zm15.633-9.61h-1V53.8l1.714-1.746-.714-.7Zm1.787-1.275.437.9.01-.006-.447-.894Zm5.068.41-.595.803.004.004.591-.807Zm-5.185 1.377-.489-.873-.007.005.496.868ZM47.93 62.38c-.13 0-.22-.01-.275-.02-.058-.01-.057-.018-.024 0a.502.502 0 0 1 .178.18c.065.105.08.207.08.268h-2c0 .252.06.52.21.769.15.247.357.42.57.536.393.216.855.267 1.26.267v-2Zm-.04.428V44.323h-2v18.486h2Zm0-18.486a.531.531 0 0 1-.08.269.501.501 0 0 1-.179.179c-.033.018-.034.01.024 0 .055-.01.144-.02.275-.02v-2c-.406 0-.868.05-1.262.267-.212.117-.418.29-.568.536-.151.249-.21.517-.21.769h2Zm.04.429h.102v-2h-.102v2Zm.102 0c.134 0 .226.009.284.02.06.01.062.019.03.002a.498.498 0 0 1-.177-.177.536.536 0 0 1-.082-.274h2c0-.255-.06-.525-.214-.774a1.508 1.508 0 0 0-.574-.534c-.394-.214-.858-.263-1.267-.263v2Zm.055-.429v7.031h2v-7.031h-2Zm1.714 7.732a5.39 5.39 0 0 1 1.51-1.076l-.874-1.799a7.39 7.39 0 0 0-2.064 1.474l1.428 1.4Zm1.52-1.08a3.815 3.815 0 0 1 1.736-.408v-2c-.926 0-1.806.206-2.63.618l.894 1.79Zm1.736-.408c.892 0 1.642.246 2.29.726l1.19-1.606c-1.012-.751-2.186-1.12-3.48-1.12v2Zm2.294.73c.472.345.851 1.052.851 2.474h2c0-1.722-.46-3.203-1.669-4.088l-1.182 1.614Zm.851 2.474v9.038h2v-9.038h-2Zm0 9.038c0-.061.016-.163.08-.269a.5.5 0 0 1 .179-.179c.033-.018.034-.01-.024 0-.056.01-.145.02-.275.02v2c.406 0 .868-.05 1.262-.267.212-.116.418-.29.568-.536a1.47 1.47 0 0 0 .21-.769h-2Zm-.04-.428h-.102v2h.102v-2Zm-.102 0c-.134 0-.226-.01-.284-.02-.06-.011-.062-.02-.031-.002.036.02.113.072.177.176.066.107.083.21.083.274h-2c0 .255.06.525.214.774.152.247.361.42.573.534.395.214.858.264 1.267.264v-2Zm-.055.428v-8.818h-2v8.818h2Zm0-8.818c0-.987-.287-1.887-.967-2.568l-1.414 1.415c.218.218.38.558.38 1.153h2Zm-.967-2.568c-.697-.697-1.65-.966-2.684-.966v2c.703 0 1.069.18 1.27.38l1.414-1.414Zm-2.684-.966c-.742 0-1.444.178-2.086.537l.977 1.745a2.214 2.214 0 0 1 1.108-.282v-2Zm-2.093.542a6.645 6.645 0 0 0-1.413 1.054l1.415 1.415c.248-.248.573-.495.99-.733L50.262 51Zm-1.413 1.054c-.16.16-.293.3-.391.41a2.455 2.455 0 0 0-.15.182c-.023.031-.06.084-.095.151-.014.026-.125.222-.125.492h2a.982.982 0 0 1-.11.45c-.026.048-.049.078-.052.083-.009.012-.005.005.026-.03.059-.066.16-.171.312-.323l-1.415-1.415Zm-.761 1.235v9.521h2v-9.521h-2Zm0 9.521c0-.064.017-.167.082-.274a.497.497 0 0 1 .178-.176c.031-.017.03-.01-.031.002-.058.01-.15.02-.284.02v2c.41 0 .873-.05 1.267-.264.213-.115.422-.287.574-.534.153-.25.214-.52.214-.774h-2Zm-.055-.428h-.102v2h.102v-2Zm14.194-.582-.734.678.006.006.728-.684Zm-.029-10.43.758.652.003-.003-.76-.65Zm8.54-.073-.788.614.003.005.785-.62Zm1.201 5.478-.853-.521-.004.007-.004.007.861.507Zm-.366.454.68.733.003-.002-.683-.73Zm-8.57.19v-1h-1.076l.08 1.074.997-.073Zm1.114 3.194-.728.686.005.005.006.006.717-.697Zm4.76.732-.315-.948-.006.002.322.946Zm1.524-.644-.371-.929-.046.019-.044.023.461.887Zm.791.088-.789.614.019.024.02.023.75-.661Zm.367.571-.91.414.01.025.014.025.886-.464Zm-2.212 1.846-.249-.969-.003.001.252.968Zm.425-7.661v1h1v-1h-1Zm-6.768 0-.998-.072-.076 1.072h1.074v-1Zm4.043 6.94c-1.996 0-3.29-.518-4.09-1.37l-1.458 1.37c1.309 1.393 3.227 2 5.548 2v-2Zm-4.084-1.364c-.806-.873-1.303-2.31-1.303-4.507h-2c0 2.451.548 4.471 1.833 5.864l1.47-1.356Zm-1.303-4.507c0-2.174.486-3.65 1.296-4.592l-1.516-1.304c-1.24 1.44-1.78 3.46-1.78 5.896h2Zm1.299-4.595c.787-.922 1.983-1.45 3.766-1.45v-2c-2.203 0-4.024.672-5.287 2.152l1.52 1.298Zm3.766-1.45c1.543 0 2.557.486 3.225 1.343l1.577-1.23c-1.13-1.449-2.791-2.114-4.802-2.114v2Zm3.228 1.347c.713.905 1.148 2.336 1.148 4.449h2c0-2.34-.474-4.288-1.577-5.687l-1.571 1.238Zm1.148 4.449a.64.64 0 0 1 .029-.19c0-.003-.001.003-.009.017a.928.928 0 0 1-.035.062l1.707 1.043c.118-.194.308-.537.308-.932h-2Zm-.023-.097a1.02 1.02 0 0 1-.187.23l1.365 1.462c.213-.2.397-.426.545-.678l-1.724-1.014Zm-.185.228c-.03.028-.025.018.013-.003a.668.668 0 0 1 .316-.073v2c.497 0 .858-.297 1.032-.458l-1.361-1.466Zm.329-.076h-8.218v2h8.218v-2Zm-9.215 1.073c.115 1.56.522 2.893 1.382 3.806l1.456-1.372c-.41-.434-.744-1.23-.844-2.581l-1.994.147ZM63.4 61.31c.897.924 2.167 1.3 3.618 1.3v-2c-1.128 0-1.791-.29-2.183-.693L63.4 61.309Zm3.618 1.3c.799 0 1.533-.097 2.181-.318l-.643-1.893c-.386.13-.892.21-1.538.21v2Zm2.176-.316a11.466 11.466 0 0 0 1.669-.706l-.923-1.774c-.441.23-.9.423-1.378.583l.632 1.897Zm1.579-.665c.09-.035.193-.085.295-.136l-.894-1.789a5.177 5.177 0 0 1-.144.068l.743 1.857Zm.295-.136c.03-.015.031-.014.014-.008a.838.838 0 0 1-.256.04v-2c-.194 0-.35.053-.417.077-.086.03-.166.068-.235.102l.894 1.789Zm-.242.032a.71.71 0 0 1-.412-.122c-.044-.032-.046-.045-.011 0l1.579-1.228a1.98 1.98 0 0 0-.4-.395 1.295 1.295 0 0 0-.756-.255v2Zm-.383-.075c.076.087.146.193.205.324l1.821-.828a3.286 3.286 0 0 0-.527-.819l-1.5 1.323Zm.23.374a1.818 1.818 0 0 1 .064.138c.003.007 0 0-.005-.02a.544.544 0 0 1-.012-.128h2a1.57 1.57 0 0 0-.098-.521 3.109 3.109 0 0 0-.178-.397l-1.771.928Zm.047-.01c0-.117.03-.207.055-.262.025-.051.046-.072.04-.065a.598.598 0 0 1-.073.063 2.091 2.091 0 0 1-.19.13l1.046 1.704c.256-.157.507-.341.705-.561.192-.215.417-.557.417-1.009h-2Zm-.168-.134c-.314.192-.786.386-1.454.557l.497 1.937c.778-.2 1.458-.455 2.003-.79l-1.046-1.704Zm-1.457.558a8.107 8.107 0 0 1-2.048.246v2c.896 0 1.748-.101 2.552-.31l-.504-1.936Zm1.677-6.693c0-1.466-.274-2.748-.985-3.682-.75-.985-1.857-1.42-3.136-1.42v2c.802 0 1.254.25 1.545.63.33.434.576 1.203.576 2.472h2Zm-4.12-5.102c-1.335 0-2.498.417-3.337 1.361-.811.913-1.203 2.187-1.309 3.67l1.995.142c.09-1.252.404-2.028.808-2.483.377-.424.94-.69 1.842-.69v-2Zm-3.648 6.102h6.768v-2h-6.768v2Zm13.081-4.955h1v-1h-1v1Zm-1.714-.176-.852.524.024.039.028.037.8-.6Zm0-1.509-.822-.57-.005.008-.005.007.832.555Zm1.714-.19v1h.893l.1-.888-.993-.112Zm.308-2.725.993.112.004-.03.001-.03-.998-.052Zm1.684-.425-.61.793.02.015.02.014.57-.822Zm.19 3.15h-1v1h1v-1Zm2.579.19-.852.524.024.04.028.036.8-.6Zm0 1.509-.823-.57-.004.008-.005.007.832.555Zm-2.578.176v-1h-1v1h1Zm.366 9.594-.758.653.007.008.006.007.745-.668Zm1.787.367-.206-.98-.011.003.217.977Zm.747.41-.955.298.005.013.004.014.946-.325Zm-1.729.523c-.65 0-1.21-.191-1.718-.583L76.5 63.484c.86.663 1.852 1 2.94 1v-2Zm-1.718-.583c-.327-.252-.636-.804-.636-2.006h-2c0 1.475.375 2.788 1.415 3.59L77.72 61.9Zm-.636-2.006V51.59h-2v8.305h2Zm-1-9.305h-1.304v2h1.304v-2Zm-1.304 0c.01 0 .07.001.152.037.09.038.175.103.238.187l-1.6 1.2c.326.435.803.576 1.21.576v-2Zm.442.3a.42.42 0 0 1 .038.078c.005.014.005.018.004.009a1.358 1.358 0 0 1-.01-.164h-2.001c0 .327.039.757.265 1.125l1.704-1.048Zm.03-.077v-.322h-2v.322h2Zm0-.322a1.283 1.283 0 0 1 .01-.156.504.504 0 0 1-.06.124L73.54 49.35c-.25.376-.285.826-.285 1.141h2Zm-.06-.017a.587.587 0 0 1-.232.195.444.444 0 0 1-.18.046v-2c-.438 0-.918.167-1.232.62l1.644 1.14Zm-.412.24h1.304v-2h-1.304v2Zm2.298-.887.307-2.725-1.987-.224-.308 2.724 1.988.225Zm.312-2.786a.411.411 0 0 1-.049.161.515.515 0 0 1-.161.185c-.054.037-.09.043-.08.041a.617.617 0 0 1 .127-.01v-2c-.36 0-.8.06-1.177.318a1.517 1.517 0 0 0-.657 1.203l1.997.102Zm-.163.378h.249v-2h-.25v2Zm.249 0c.039 0 .068.002.088.004l.03.004s-.013-.003-.035-.013a.468.468 0 0 1-.093-.056l1.22-1.585c-.388-.299-.857-.354-1.21-.354v2Zm.03-.032a.592.592 0 0 1-.2-.24.407.407 0 0 1-.04-.157h2c0-.426-.153-.923-.62-1.247l-1.14 1.644Zm-.24-.397v2.725h2v-2.725h-2Zm1 3.725h2.183v-2h-2.182v2Zm2.183 0a.47.47 0 0 1-.196-.052.63.63 0 0 1-.26-.234l1.703-1.048c-.306-.498-.812-.666-1.247-.666v2Zm-.404-.21a.524.524 0 0 1-.064-.109c-.01-.024-.013-.038-.013-.037a1.085 1.085 0 0 1 .009.132h2c0-.328-.043-.8-.332-1.186l-1.6 1.2Zm-.069-.014v.322h2v-.322h-2Zm0 .322a1.112 1.112 0 0 1-.01.141c0 .004.002-.005.009-.023a.45.45 0 0 1 .047-.086l1.645 1.138c.263-.38.31-.83.31-1.17h-2Zm.037.046a.638.638 0 0 1 .268-.227.436.436 0 0 1 .168-.042v2c.402 0 .907-.14 1.228-.621l-1.664-1.11Zm.436-.27h-2.182v2h2.182v-2Zm-3.182 1v8.101h2v-8.1h-2Zm0 8.101c0 .764.117 1.578.608 2.147l1.515-1.306c.012.014-.024-.02-.06-.17a2.9 2.9 0 0 1-.063-.67h-2Zm.621 2.162c.47.523 1.097.757 1.77.757v-2c-.186 0-.242-.05-.28-.092l-1.49 1.335Zm1.77.757c.355 0 .695-.02.979-.082l-.434-1.953a2.91 2.91 0 0 1-.545.035v2Zm.968-.08c.084-.018.144-.029.183-.035l.021-.003.006-.001h.002-.011a.593.593 0 0 1-.04.002v-2c-.183 0-.41.046-.573.08l.412 1.957Zm.16-.037a.773.773 0 0 1-.371-.095.655.655 0 0 1-.193-.157c-.05-.063-.041-.082-.01.019l1.91-.597a2.047 2.047 0 0 0-.347-.684 1.27 1.27 0 0 0-.989-.486v2Zm-.565-.206c.045.129.073.23.09.307a.993.993 0 0 1 .015.086l.002.029h2c0-.35-.095-.724-.215-1.072l-1.892.65Zm.107.422c0-.092.034-.203.105-.29.058-.072.099-.076.043-.053-.132.054-.446.12-1.038.12v2c.669 0 1.3-.065 1.798-.27.258-.106.535-.272.75-.538.23-.282.342-.62.342-.97h-2Zm10.756.542-.507.862.02.011.02.01.467-.883Zm2.827-17.725-.9.436.016.032.018.032.866-.5Zm4.922 8.54.925-.38-.025-.061-.034-.058-.866.5Zm.674 1.64-.925.38.882 2.148.954-2.116-.911-.411Zm.674-1.493-.87-.494-.023.04-.019.043.912.41Zm4.936-8.687.87.494.01-.018.009-.018-.889-.458Zm.967 17.725-.507.862.019.011.02.01.468-.883Zm-.249-14.458h1l-1.936-.351.936.35Zm-.044.117.867.499.041-.071.028-.077-.936-.351Zm-5.186 9.009.864.504.003-.005-.867-.5Zm-.234.263.486.874.035-.02.034-.022-.555-.832Zm-1.963-.263.87-.492-.002-.005-.868.497Zm-5.303-9.273.869-.496-1.869-3.267v3.763h1Zm-1.215 13.737c-.15 0-.253-.01-.319-.02-.07-.012-.065-.02-.02.004l-.935 1.767c.393.208.87.249 1.274.249v-2Zm-.299.006c.046.027.12.085.176.186.057.1.068.19.068.236h-2c0 .544.265 1.021.742 1.302l1.014-1.724Zm.244.422V45.627h-2v17.182h2Zm0-17.182a.515.515 0 0 1-.077.258.492.492 0 0 1-.174.176c-.032.018-.032.01.026 0 .057-.01.147-.02.28-.02v-2c-.412 0-.88.051-1.277.272-.214.119-.42.294-.57.543-.15.25-.208.518-.208.77h2Zm.055.414h.922v-2h-.922v2Zm.922 0c.1 0 .172.007.225.016a.373.373 0 0 1 .08.02c.002.001-.016-.007-.042-.03a.298.298 0 0 1-.064-.087l1.8-.872c-.411-.848-1.293-1.047-1.998-1.047v2Zm.233-.017 4.922 8.54 1.732-1-4.922-8.54-1.732 1Zm4.863 8.42.674 1.64 1.85-.76-.674-1.64-1.85.76Zm2.51 1.672.674-1.494-1.823-.822-.674 1.494 1.823.822Zm.632-1.411 4.937-8.687-1.739-.988-4.937 8.687 1.739.988Zm4.956-8.723a.258.258 0 0 1-.052.068c-.021.02-.036.026-.034.025a.782.782 0 0 1 .281-.034v-2c-.71 0-1.554.211-1.973 1.025l1.778.916Zm.195.059h.864v-2h-.864v2Zm.864 0c.13 0 .217.01.271.02.056.01.053.017.019-.002a.488.488 0 0 1-.175-.18.509.509 0 0 1-.075-.252h2c0-.565-.288-1.04-.769-1.311-.396-.224-.863-.275-1.271-.275v2Zm.04-.414v17.182h2V45.627h-2Zm0 17.182c0-.061.016-.163.081-.269a.498.498 0 0 1 .178-.179c.033-.018.034-.01-.024 0-.055.01-.144.02-.275.02v2c.406 0 .868-.05 1.262-.267.212-.116.419-.29.568-.536a1.47 1.47 0 0 0 .21-.769h-2Zm-.04-.428h-.175v2h.175v-2Zm-.175 0c-.15 0-.253-.01-.319-.02-.071-.012-.065-.02-.019.004l-.936 1.767c.393.208.869.249 1.274.249v-2Zm-.299.006a.508.508 0 0 1 .176.186c.057.1.068.19.068.236h-2c0 .544.265 1.021.742 1.302l1.014-1.724Zm.244.422V48.791h-2v14.018h2ZM104.9 48.44l-.044.118 1.872.702.044-.117-1.872-.702Zm.025-.03-5.185 9.009 1.733.998 5.186-9.01-1.734-.997Zm-5.182 9.004c-.013.022.005-.018.074-.065l1.11 1.664c.245-.163.419-.379.543-.591l-1.727-1.008Zm.143-.107c.105-.058.174-.052.149-.052v2c.248 0 .542-.044.823-.2l-.972-1.748Zm.149-.052h-1.04v2h1.04v-2Zm-1.04 0c.013 0 .076.004.154.049.08.045.12.101.13.122l-1.74.984c.309.547.842.845 1.456.845v-2Zm.282.166-5.302-9.272-1.737.993 5.303 9.272 1.736-.993Zm-7.17-8.776V62.81h2V48.644h-2Zm0 14.165c0-.061.015-.163.08-.269a.502.502 0 0 1 .178-.179c.033-.018.034-.01-.024 0-.055.01-.144.02-.275.02v2c.406 0 .868-.05 1.262-.267.212-.116.419-.29.568-.536a1.47 1.47 0 0 0 .21-.769h-2Zm-.04-.428h-.176v2h.175v-2Zm19.145.897-.381.925.009.004.009.003.363-.932Zm-.044-.806.819.574.004-.005-.823-.569Zm4.219-6.108.823.568.387-.561-.381-.566-.829.559Zm-3.911-5.8-.839.544.005.007.004.007.83-.559Zm1.933-.806-.316.948.024.008.025.007.267-.963Zm.425.307.832-.555-.008-.011-.824.566Zm2.476 3.706.848-.53-.008-.013-.009-.012-.831.555Zm.527.923-.881.474.855 1.587.894-1.565-.868-.496Zm.557-.923-.833-.553-.006.008-.005.008.844.537Zm2.49-3.75-.832-.554-.001.001.833.553Zm2.168.542-.805-.593-.01.014-.01.014.825.565Zm-3.926 5.728-.825-.566-.386.563.384.565.827-.562Zm4.204 6.181-.827.563h.001l.826-.563Zm-.059.806.346.938.022-.007.021-.01-.389-.921Zm-1.875.03-.332.942.032.012.033.009.267-.964Zm-.395-.323.848-.53-.008-.013-.009-.014-.831.557Zm-2.769-4.13-.832.554.002.002.83-.557Zm-.366-.587-.884.468.006.011.007.011.871-.49Zm-.176-.322.858-.514-.937-1.563-.815 1.63.894.447Zm-.175.308-.862-.507-.005.008-.005.008.872.49Zm-.381.6-.827-.562-.003.004.83.558Zm-2.798 4.16.827.563.003-.005-.83-.558Zm-1.26-.633c-.174 0-.305-.008-.398-.02-.1-.011-.125-.023-.104-.015l-.725 1.864c.362.14.81.17 1.227.17v-2Zm-.483-.028a.67.67 0 0 1 .37.588h-2c0 .266.074.547.258.796.177.24.406.382.61.466l.762-1.85Zm.37.588a.635.635 0 0 1-.033.196l.012-.022c.01-.016.024-.04.045-.07l-1.638-1.146c-.154.22-.386.596-.386 1.042h2Zm.028.1 4.219-6.109-1.646-1.136-4.219 6.108 1.646 1.137Zm4.225-7.236-3.911-5.8-1.659 1.117 3.912 5.801 1.658-1.118Zm-3.902-5.787a.97.97 0 0 1-.045-.075l-.014-.026.004.01c.002.007.006.018.009.033.007.027.017.08.017.15h-2c0 .423.217.79.352.998l1.677-1.09Zm-.029.091a.684.684 0 0 1-.146.415.563.563 0 0 1-.228.18l-.725-1.864a1.444 1.444 0 0 0-.622.451c-.195.25-.279.54-.279.818h2Zm-.374.595c-.026.01-.002-.002.109-.015.102-.012.246-.02.437-.02v-2c-.435 0-.905.029-1.271.171l.725 1.864Zm.546-.034h.249v-2h-.249v2Zm.249 0c.24 0 .355.026.387.036l.632-1.897c-.319-.107-.673-.14-1.019-.14v2Zm.436.051a.254.254 0 0 1-.132-.09l1.648-1.132a1.747 1.747 0 0 0-.981-.705l-.535 1.927Zm-.14-.1 2.476 3.706 1.663-1.111-2.475-3.706-1.664 1.11Zm2.46 3.68c.13.21.295.496.494.867l1.761-.948c-.21-.39-.397-.719-.559-.979l-1.696 1.06Zm2.243.89.199-.342-1.724-1.013c-.098.165-.169.288-.211.362l1.736.992Zm.199-.342c.09-.153.201-.333.333-.54l-1.687-1.075c-.141.222-.265.423-.37.602l1.724 1.014Zm.323-.525 2.49-3.75-1.666-1.106-2.49 3.75 1.666 1.106Zm2.489-3.748c-.098.147-.204.16-.135.14.067-.02.214-.046.475-.046v-2c-.364 0-.725.032-1.049.13-.321.096-.701.285-.955.667l1.664 1.109Zm.34.094h.102v-2h-.102v2Zm.102 0c.175 0 .304.007.393.018.098.012.111.023.076.009l.762-1.85c-.364-.15-.821-.177-1.231-.177v2Zm.469.027a.588.588 0 0 1-.237-.195.676.676 0 0 1-.133-.393h2c0-.265-.075-.547-.258-.796a1.426 1.426 0 0 0-.61-.466l-.762 1.85Zm-.37-.588c0-.067.01-.12.018-.152.008-.033.017-.053.019-.058.004-.008-.006.015-.047.071l1.61 1.186c.16-.217.4-.591.4-1.047h-2Zm-.03-.111-3.926 5.727 1.65 1.131 3.926-5.727-1.65-1.131Zm-3.928 6.855 4.204 6.182 1.654-1.125-4.204-6.182-1.654 1.125Zm4.205 6.183a2.072 2.072 0 0 1 .085.14c.003.004-.005-.01-.014-.042-.004-.016-.011-.04-.016-.071a.767.767 0 0 1-.009-.122h2c0-.268-.091-.49-.15-.615a2.988 2.988 0 0 0-.244-.417l-1.652 1.127Zm.046-.095c0-.158.057-.319.159-.443.088-.106.172-.14.174-.142l.777 1.844c.39-.165.89-.556.89-1.259h-2Zm.376-.601c.013-.005-.022.008-.135.021-.106.012-.251.02-.442.02v2c.442 0 .904-.03 1.268-.165l-.691-1.876Zm-.577.04h-.235v2h.235v-2Zm-.235 0c-.263 0-.4-.022-.45-.036l-.535 1.927c.301.084.643.11.985.11v-2Zm-.385-.016a.264.264 0 0 1 .076.044c.026.02.039.04.044.047l-1.696 1.06c.212.339.521.598.911.735l.665-1.886Zm.103.064-2.769-4.13-1.661 1.113 2.768 4.13 1.662-1.113Zm-2.768-4.128a8.22 8.22 0 0 1-.326-.522l-1.743.98c.105.187.242.406.405.65l1.664-1.108Zm-.314-.5a9.133 9.133 0 0 0-.202-.368l-1.715 1.029.001.001.003.005.009.017c.009.014.019.034.032.058.027.049.062.113.104.194l1.768-.936Zm-1.954-.301c.004-.009.005-.009-.003.005l-.029.052c-.027.046-.063.11-.111.19l1.724 1.015c.09-.154.169-.29.208-.368l-1.789-.894Zm-.153.264a7.747 7.747 0 0 1-.336.529l1.654 1.124a9.49 9.49 0 0 0 .425-.672l-1.743-.98Zm-.339.533-2.798 4.16 1.66 1.116 2.798-4.16-1.66-1.116Zm-2.795 4.156c.085-.125.173-.137.111-.117-.063.02-.204.046-.456.046v2c.363 0 .725-.035 1.053-.138.328-.102.695-.297.946-.666l-1.654-1.125Zm-.345-.071h-.088v2h.088v-2Z" fill="#000"/></g><defs><filter id="a" x="0" y="0" width="144.895" height="114" filterUnits="userSpaceOnUse" color-interpolation-filters="sRGB"><feFlood flood-opacity="0" result="BackgroundImageFix"/><feColorMatrix in="SourceAlpha" values="0 0 0 0 0 0 0 0 0 0 0 0 0 0 0 0 0 0 127 0" result="hardAlpha"/><feOffset dy="4"/><feGaussianBlur stdDeviation="2"/><feComposite in2="hardAlpha" operator="out"/><feColorMatrix values="0 0 0 0 0 0 0 0 0 0 0 0 0 0 0 0 0 0 0.25 0"/><feBlend in2="BackgroundImageFix" result="effect1_dropShadow_34_166"/><feBlend in="SourceGraphic" in2="effect1_dropShadow_34_166" result="shape"/></filter></defs></svg>